<svg width="207" height="35" viewBox="0 0 207 35" fill="none" xmlns="http://www.w3.org/2000/svg">
<path d="M19.7578 25.75C19.7578 26.8906 19.5391 27.9609 19.1016 28.9609C18.6797 29.9609 18.0938 30.8359 17.3438 31.5859C16.5938 32.3359 15.7109 32.9297 14.6953 33.3672C13.6953 33.7891 12.625 34 11.4844 34H0.84375V0.390625H11.4844C12.625 0.390625 13.6953 0.609375 14.6953 1.04688C15.7109 1.46875 16.5938 2.05469 17.3438 2.80469C18.0938 3.55469 18.6797 4.4375 19.1016 5.45312C19.5391 6.45313 19.7578 7.52344 19.7578 8.66406V25.75ZM16.7344 8.66406C16.7344 7.91406 16.5938 7.21875 16.3125 6.57812C16.0312 5.92188 15.6406 5.35156 15.1406 4.86719C14.6562 4.36719 14.0859 3.97656 13.4297 3.69531C12.7891 3.41406 12.0938 3.27344 11.3438 3.27344H3.86719V31.1172H11.3438C12.0938 31.1172 12.7891 30.9766 13.4297 30.6953C14.0859 30.4141 14.6562 30.0312 15.1406 29.5469C15.6406 29.0625 16.0312 28.5 16.3125 27.8594C16.5938 27.2031 16.7344 26.5 16.7344 25.75V8.66406ZM41.0634 27.4141C41.0634 28.3828 40.8759 29.2969 40.5009 30.1562C40.1416 31.0156 39.6416 31.7656 39.0009 32.4062C38.3603 33.0469 37.6103 33.5547 36.7509 33.9297C35.8916 34.2891 34.9775 34.4688 34.0088 34.4688H32.0869C31.1181 34.4688 30.2041 34.2891 29.3447 33.9297C28.4853 33.5547 27.7353 33.0469 27.0947 32.4062C26.4541 31.7656 25.9463 31.0156 25.5713 30.1562C25.2119 29.2969 25.0322 28.3828 25.0322 27.4141V16.5859C25.0322 15.6172 25.2119 14.7031 25.5713 13.8438C25.9463 12.9844 26.4541 12.2344 27.0947 11.5938C27.7353 10.9531 28.4853 10.4531 29.3447 10.0938C30.2041 9.71875 31.1181 9.53125 32.0869 9.53125H34.0088C34.9775 9.53125 35.8916 9.71875 36.7509 10.0938C37.6103 10.4531 38.3603 10.9531 39.0009 11.5938C39.6416 12.2344 40.1416 12.9844 40.5009 13.8438C40.8759 14.7031 41.0634 15.6172 41.0634 16.5859V22.2344H27.915V27.5781C27.915 28.1562 28.0244 28.7031 28.2431 29.2188C28.4619 29.7188 28.7588 30.1562 29.1338 30.5312C29.5088 30.9062 29.9463 31.2031 30.4463 31.4219C30.9619 31.6406 31.5088 31.75 32.0869 31.75H34.0088C34.5869 31.75 35.1259 31.6406 35.6259 31.4219C36.1416 31.2031 36.5869 30.9062 36.9619 30.5312C37.3369 30.1562 37.6338 29.7188 37.8525 29.2188C38.0713 28.7031 38.1806 28.1562 38.1806 27.5781V25.9844L41.0634 26.4531V27.4141ZM38.1806 16.4219C38.1806 15.8438 38.0713 15.3047 37.8525 14.8047C37.6338 14.2891 37.3369 13.8438 36.9619 13.4688C36.5869 13.0938 36.1416 12.7969 35.6259 12.5781C35.1259 12.3594 34.5869 12.25 34.0088 12.25H32.0869C31.5088 12.25 30.9619 12.3594 30.4463 12.5781C29.9463 12.7969 29.5088 13.0938 29.1338 13.4688C28.7588 13.8438 28.4619 14.2891 28.2431 14.8047C28.0244 15.3047 27.915 15.8438 27.915 16.4219V19.9844H38.1806V16.4219ZM60.9394 34L59.3456 31.6094C58.6894 32.4688 57.8691 33.1641 56.8847 33.6953C55.9003 34.2109 54.8222 34.4688 53.6503 34.4688H52.9238C51.955 34.4688 51.0409 34.2891 50.1816 33.9297C49.3222 33.5547 48.5722 33.0469 47.9316 32.4062C47.2909 31.7656 46.7831 31.0156 46.4081 30.1562C46.0488 29.2969 45.8691 28.3828 45.8691 27.4141V27.1797C45.8691 26.2109 46.0488 25.2969 46.4081 24.4375C46.7831 23.5781 47.2909 22.8281 47.9316 22.1875C48.5722 21.5469 49.3222 21.0469 50.1816 20.6875C51.0409 20.3125 51.955 20.125 52.9238 20.125H59.0175V16.4219C59.0175 15.8438 58.9081 15.3047 58.6894 14.8047C58.4706 14.2891 58.1738 13.8438 57.7988 13.4688C57.4238 13.0938 56.9784 12.7969 56.4628 12.5781C55.9628 12.3594 55.4238 12.25 54.8456 12.25H53.1581C52.58 12.25 52.0331 12.3594 51.5175 12.5781C51.0175 12.7969 50.58 13.0938 50.205 13.4688C49.83 13.8438 49.5331 14.2891 49.3144 14.8047C49.0956 15.3047 48.9863 15.8438 48.9863 16.4219V17.2891L46.1034 16.8203V16.5859C46.1034 15.6172 46.2831 14.7031 46.6425 13.8438C47.0175 12.9844 47.5253 12.2344 48.1659 11.5938C48.8066 10.9531 49.5566 10.4531 50.4159 10.0938C51.2753 9.71875 52.1894 9.53125 53.1581 9.53125H54.8456C55.8144 9.53125 56.7284 9.71875 57.5878 10.0938C58.4472 10.4531 59.1972 10.9531 59.8378 11.5938C60.4784 12.2344 60.9784 12.9844 61.3378 13.8438C61.7128 14.7031 61.9003 15.6172 61.9003 16.5859V34H60.9394ZM59.0175 22.375H52.9238C52.3456 22.375 51.7988 22.4844 51.2831 22.7031C50.7831 22.9219 50.3456 23.2266 49.9706 23.6172C49.5956 23.9922 49.2988 24.4375 49.08 24.9531C48.8613 25.4531 48.7519 25.9922 48.7519 26.5703V27.5781C48.7519 28.1562 48.8613 28.7031 49.08 29.2188C49.2988 29.7188 49.5956 30.1562 49.9706 30.5312C50.3456 30.9062 50.7831 31.2031 51.2831 31.4219C51.7988 31.6406 52.3456 31.75 52.9238 31.75H54.8456C55.4238 31.75 55.9628 31.6406 56.4628 31.4219C56.9784 31.2031 57.4238 30.9062 57.7988 30.5312C58.1738 30.1562 58.4706 29.7188 58.6894 29.2188C58.9081 28.7031 59.0175 28.1562 59.0175 27.5781V22.375ZM81.7763 34L80.1825 31.5625C79.5263 32.4531 78.7059 33.1641 77.7216 33.6953C76.7372 34.2109 75.6591 34.4688 74.4872 34.4688H73.7606C72.7919 34.4688 71.8778 34.2891 71.0184 33.9297C70.1591 33.5547 69.4091 33.0469 68.7684 32.4062C68.1278 31.7656 67.62 31.0156 67.245 30.1562C66.8856 29.2969 66.7059 28.3828 66.7059 27.4141V16.5859C66.7059 15.6172 66.8856 14.7031 67.245 13.8438C67.62 12.9844 68.1278 12.2344 68.7684 11.5938C69.4091 10.9531 70.1591 10.4531 71.0184 10.0938C71.8778 9.71875 72.7919 9.53125 73.7606 9.53125H74.4872C75.5653 9.53125 76.5653 9.75 77.4872 10.1875C78.4091 10.625 79.1981 11.2344 79.8544 12.0156V0.390625H82.7372V34H81.7763ZM79.8544 16.4219C79.8544 15.8438 79.745 15.3047 79.5263 14.8047C79.3075 14.2891 79.0106 13.8438 78.6356 13.4688C78.2606 13.0938 77.8153 12.7969 77.2997 12.5781C76.7997 12.3594 76.2606 12.25 75.6825 12.25H73.7606C73.1825 12.25 72.6356 12.3594 72.12 12.5781C71.62 12.7969 71.1825 13.0938 70.8075 13.4688C70.4325 13.8438 70.1356 14.2891 69.9169 14.8047C69.6981 15.3047 69.5888 15.8438 69.5888 16.4219V27.5781C69.5888 28.1562 69.6981 28.7031 69.9169 29.2188C70.1356 29.7188 70.4325 30.1562 70.8075 30.5312C71.1825 30.9062 71.62 31.2031 72.12 31.4219C72.6356 31.6406 73.1825 31.75 73.7606 31.75H75.6825C76.2606 31.75 76.7997 31.6406 77.2997 31.4219C77.8153 31.2031 78.2606 30.9062 78.6356 30.5312C79.0106 30.1562 79.3075 29.7188 79.5263 29.2188C79.745 28.7031 79.8544 28.1562 79.8544 27.5781V16.4219ZM87.0506 19.3047V16.5859H96.0272V19.3047H87.0506ZM101.091 4.23438V0.390625H104.442V4.23438H101.091ZM101.325 34V10H104.208V34H101.325ZM123.146 34V16.4219C123.146 15.8438 123.037 15.3047 122.818 14.8047C122.599 14.2891 122.302 13.8438 121.927 13.4688C121.552 13.0938 121.107 12.7969 120.592 12.5781C120.092 12.3594 119.552 12.25 118.974 12.25H117.052C116.474 12.25 115.927 12.3594 115.412 12.5781C114.912 12.7969 114.474 13.0938 114.099 13.4688C113.724 13.8438 113.427 14.2891 113.209 14.8047C112.99 15.3047 112.881 15.8438 112.881 16.4219V34H109.998V10H110.959L112.529 12.4375C113.185 11.5469 114.006 10.8438 114.99 10.3281C115.99 9.79687 117.076 9.53125 118.248 9.53125H118.974C119.943 9.53125 120.857 9.71875 121.717 10.0938C122.576 10.4531 123.326 10.9531 123.967 11.5938C124.607 12.2344 125.107 12.9844 125.467 13.8438C125.842 14.7031 126.029 15.6172 126.029 16.5859V34H123.146ZM147.335 27.9062C147.335 28.875 147.139 29.7656 146.749 30.5781C146.358 31.375 145.827 32.0625 145.155 32.6406C144.483 33.2188 143.702 33.6719 142.811 34C141.936 34.3125 141.014 34.4688 140.046 34.4688H138.124C137.155 34.4688 136.225 34.2891 135.335 33.9297C134.46 33.5547 133.686 33.0469 133.014 32.4062C132.358 31.7656 131.827 31.0156 131.421 30.1562C131.03 29.2969 130.835 28.3828 130.835 27.4141V26.4531L133.717 25.9844V27.5781C133.717 28.1562 133.835 28.7031 134.069 29.2188C134.319 29.7188 134.647 30.1562 135.053 30.5312C135.46 30.9062 135.928 31.2031 136.46 31.4219C136.991 31.6406 137.546 31.75 138.124 31.75H140.046C140.624 31.75 141.178 31.6641 141.71 31.4922C142.241 31.3203 142.71 31.0781 143.116 30.7656C143.538 30.4375 143.866 30.0469 144.1 29.5938C144.35 29.1406 144.475 28.625 144.475 28.0469C144.475 27.1875 144.288 26.4844 143.913 25.9375C143.538 25.3906 143.038 24.9375 142.413 24.5781C141.803 24.2031 141.1 23.8984 140.303 23.6641C139.522 23.4141 138.717 23.1719 137.889 22.9375C137.061 22.6875 136.249 22.4062 135.452 22.0938C134.671 21.7812 133.967 21.375 133.342 20.875C132.733 20.3594 132.241 19.7188 131.866 18.9531C131.491 18.1875 131.303 17.2344 131.303 16.0938C131.303 15.125 131.491 14.2422 131.866 13.4453C132.241 12.6328 132.749 11.9375 133.389 11.3594C134.03 10.7812 134.772 10.3359 135.616 10.0234C136.475 9.69531 137.389 9.53125 138.358 9.53125H140.046C141.014 9.53125 141.928 9.71875 142.788 10.0938C143.647 10.4531 144.397 10.9531 145.038 11.5938C145.678 12.2344 146.178 12.9844 146.538 13.8438C146.913 14.7031 147.1 15.6172 147.1 16.5859V16.6797L144.217 17.1484V16.4219C144.217 15.8438 144.108 15.3047 143.889 14.8047C143.671 14.2891 143.374 13.8438 142.999 13.4688C142.624 13.0938 142.178 12.7969 141.663 12.5781C141.163 12.3594 140.624 12.25 140.046 12.25H138.358C137.78 12.25 137.233 12.3359 136.717 12.5078C136.217 12.6797 135.78 12.9297 135.405 13.2578C135.03 13.5703 134.733 13.9531 134.514 14.4062C134.296 14.8594 134.186 15.375 134.186 15.9531C134.186 16.7812 134.374 17.4609 134.749 17.9922C135.124 18.5078 135.616 18.9453 136.225 19.3047C136.85 19.6641 137.553 19.9688 138.335 20.2188C139.132 20.4531 139.936 20.7031 140.749 20.9688C141.577 21.2188 142.382 21.5078 143.163 21.8359C143.96 22.1641 144.663 22.5859 145.272 23.1016C145.897 23.6172 146.397 24.2656 146.772 25.0469C147.147 25.8125 147.335 26.7656 147.335 27.9062ZM152.633 4.23438V0.390625H155.984V4.23438H152.633ZM152.867 34V10H155.75V34H152.867ZM176.61 34L175.016 31.5625C174.36 32.4531 173.54 33.1641 172.555 33.6953C171.571 34.2109 170.493 34.4688 169.321 34.4688H168.594C167.626 34.4688 166.712 34.2891 165.852 33.9297C164.993 33.5547 164.243 33.0469 163.602 32.4062C162.962 31.7656 162.454 31.0156 162.079 30.1562C161.719 29.2969 161.54 28.3828 161.54 27.4141V16.5859C161.54 15.6172 161.719 14.7031 162.079 13.8438C162.454 12.9844 162.962 12.2344 163.602 11.5938C164.243 10.9531 164.993 10.4531 165.852 10.0938C166.712 9.71875 167.626 9.53125 168.594 9.53125H169.321C170.399 9.53125 171.399 9.75 172.321 10.1875C173.243 10.625 174.032 11.2344 174.688 12.0156V0.390625H177.571V34H176.61ZM174.688 16.4219C174.688 15.8438 174.579 15.3047 174.36 14.8047C174.141 14.2891 173.844 13.8438 173.469 13.4688C173.094 13.0938 172.649 12.7969 172.133 12.5781C171.633 12.3594 171.094 12.25 170.516 12.25H168.594C168.016 12.25 167.469 12.3594 166.954 12.5781C166.454 12.7969 166.016 13.0938 165.641 13.4688C165.266 13.8438 164.969 14.2891 164.751 14.8047C164.532 15.3047 164.423 15.8438 164.423 16.4219V27.5781C164.423 28.1562 164.532 28.7031 164.751 29.2188C164.969 29.7188 165.266 30.1562 165.641 30.5312C166.016 30.9062 166.454 31.2031 166.954 31.4219C167.469 31.6406 168.016 31.75 168.594 31.75H170.516C171.094 31.75 171.633 31.6406 172.133 31.4219C172.649 31.2031 173.094 30.9062 173.469 30.5312C173.844 30.1562 174.141 29.7188 174.36 29.2188C174.579 28.7031 174.688 28.1562 174.688 27.5781V16.4219ZM198.408 27.4141C198.408 28.3828 198.22 29.2969 197.845 30.1562C197.486 31.0156 196.986 31.7656 196.345 32.4062C195.705 33.0469 194.955 33.5547 194.095 33.9297C193.236 34.2891 192.322 34.4688 191.353 34.4688H189.431C188.462 34.4688 187.548 34.2891 186.689 33.9297C185.83 33.5547 185.08 33.0469 184.439 32.4062C183.798 31.7656 183.291 31.0156 182.916 30.1562C182.556 29.2969 182.377 28.3828 182.377 27.4141V16.5859C182.377 15.6172 182.556 14.7031 182.916 13.8438C183.291 12.9844 183.798 12.2344 184.439 11.5938C185.08 10.9531 185.83 10.4531 186.689 10.0938C187.548 9.71875 188.462 9.53125 189.431 9.53125H191.353C192.322 9.53125 193.236 9.71875 194.095 10.0938C194.955 10.4531 195.705 10.9531 196.345 11.5938C196.986 12.2344 197.486 12.9844 197.845 13.8438C198.22 14.7031 198.408 15.6172 198.408 16.5859V22.2344H185.259V27.5781C185.259 28.1562 185.369 28.7031 185.587 29.2188C185.806 29.7188 186.103 30.1562 186.478 30.5312C186.853 30.9062 187.291 31.2031 187.791 31.4219C188.306 31.6406 188.853 31.75 189.431 31.75H191.353C191.931 31.75 192.47 31.6406 192.97 31.4219C193.486 31.2031 193.931 30.9062 194.306 30.5312C194.681 30.1562 194.978 29.7188 195.197 29.2188C195.416 28.7031 195.525 28.1562 195.525 27.5781V25.9844L198.408 26.4531V27.4141ZM195.525 16.4219C195.525 15.8438 195.416 15.3047 195.197 14.8047C194.978 14.2891 194.681 13.8438 194.306 13.4688C193.931 13.0938 193.486 12.7969 192.97 12.5781C192.47 12.3594 191.931 12.25 191.353 12.25H189.431C188.853 12.25 188.306 12.3594 187.791 12.5781C187.291 12.7969 186.853 13.0938 186.478 13.4688C186.103 13.8438 185.806 14.2891 185.587 14.8047C185.369 15.3047 185.259 15.8438 185.259 16.4219V19.9844H195.525V16.4219ZM203.213 34V30.3906H206.823V34H203.213Z" fill="black"/>
</svg>
